<?xml version="1.0" encoding="utf-8"?>
<!-- Generator: Adobe Illustrator 20.1.0, SVG Export Plug-In . SVG Version: 6.00 Build 0)  -->
<svg version="1.1" id="Layer_1" xmlns="http://www.w3.org/2000/svg" xmlns:xlink="http://www.w3.org/1999/xlink" x="0px" y="0px"
	 viewBox="0 0 173.7 173.7" style="enable-background:new 0 0 173.7 173.7;" xml:space="preserve">
<style type="text/css">
	.st0{fill:#FFCC00;stroke:#454545;}
	.st1{fill:url(#SVGID_1_);}
	.st2{fill:#564709;}
</style>
<circle class="st0" cx="87.2" cy="87.6" r="86.4"/>
<g>
	<linearGradient id="SVGID_1_" gradientUnits="userSpaceOnUse" x1="35.2836" y1="139.477" x2="139.0449" y2="35.7158">
		<stop  offset="0" style="stop-color:#FFF42A"/>
		<stop  offset="0.1068" style="stop-color:#FFF42D"/>
		<stop  offset="0.1792" style="stop-color:#FFF536"/>
		<stop  offset="0.2415" style="stop-color:#FFF545"/>
		<stop  offset="0.298" style="stop-color:#FFF75B"/>
		<stop  offset="0.3507" style="stop-color:#FFF876"/>
		<stop  offset="0.4005" style="stop-color:#FFFA99"/>
		<stop  offset="0.448" style="stop-color:#FFFCC1"/>
		<stop  offset="0.4926" style="stop-color:#FFFEEF"/>
		<stop  offset="0.5062" style="stop-color:#FFFFFF"/>
		<stop  offset="0.5261" style="stop-color:#FFFEE6"/>
		<stop  offset="0.5656" style="stop-color:#FFFBBA"/>
		<stop  offset="0.6082" style="stop-color:#FFF993"/>
		<stop  offset="0.6532" style="stop-color:#FFF873"/>
		<stop  offset="0.7014" style="stop-color:#FFF658"/>
		<stop  offset="0.754" style="stop-color:#FFF544"/>
		<stop  offset="0.8132" style="stop-color:#FFF535"/>
		<stop  offset="0.8844" style="stop-color:#FFF42D"/>
		<stop  offset="1" style="stop-color:#FFF42A"/>
	</linearGradient>
	<path class="st1" d="M87.2,161c-40.5,0-73.4-32.9-73.4-73.4c0-40.5,32.9-73.4,73.4-73.4s73.4,32.9,73.4,73.4
		C160.6,128.1,127.6,161,87.2,161z"/>
	<g>
		<path class="st2" d="M87.2,14.7c40.2,0,72.9,32.7,72.9,72.9s-32.7,72.9-72.9,72.9c-40.2,0-72.9-32.7-72.9-72.9S47,14.7,87.2,14.7
			 M87.2,13.7c-40.8,0-73.9,33.1-73.9,73.9s33.1,73.9,73.9,73.9s73.9-33.1,73.9-73.9S128,13.7,87.2,13.7L87.2,13.7z"/>
	</g>
</g>
<g>
	<path class="st0" d="M125.7,52.4c1.4,0.1,2.7,0.3,4,0.6c1.3,0.3,2.4,0.8,3.4,1.4c1,0.6,1.8,1.3,2.4,2.2c0.6,0.9,0.9,1.8,0.9,2.9
		c0,1.1-0.3,2-0.9,2.7c-0.6,0.7-1.6,1.1-2.9,1.1c-1.2,0-2.2-0.3-2.8-0.9c-0.6-0.6-0.9-1.4-0.9-2.4c0-0.6,0.2-1.3,0.7-1.8
		c0.5-0.6,1.1-0.9,2.1-1.1c-0.5-0.5-1.3-0.8-2.2-1.1c-0.9-0.3-2.1-0.5-3.6-0.5v18c1.7,0,3.1-0.5,4.4-1.3c1.3-0.8,2-2.1,2.3-3.8
		l4.1,0.3c-0.2,1-0.5,2-1,3c-0.5,1-1.2,1.9-2.1,2.7c-0.9,0.8-1.9,1.5-3.2,2c-1.3,0.5-2.8,0.9-4.5,1v5.4h-2.5v-5.4
		c-1.9-0.1-3.6-0.4-5.2-0.9c-1.6-0.5-2.9-1.3-4-2.3c-1.1-1-2-2.3-2.6-3.8c-0.6-1.5-0.9-3.3-0.9-5.4c0-1.8,0.3-3.4,0.8-5
		c0.5-1.5,1.3-2.9,2.3-4c1.1-1.1,2.4-2,4-2.7c1.6-0.7,3.5-1,5.7-1.1v-5.6h2.5V52.4z M123.2,56c-1.4,0.5-2.6,1.4-3.4,2.8
		c-0.9,1.4-1.3,3.2-1.3,5.4c0,2.6,0.4,4.6,1.3,6c0.9,1.4,2,2.3,3.4,2.8V56z"/>
</g>
<g>
	<path class="st0" d="M96.4,113.6c0,3.8,4,5.7,11.9,5.7v10.8H60.5v-10.8c9.3,0,13.9-1.9,13.9-5.7V65.4H59.5L59,55.2
		c10.5-0.3,17.7-5.5,21.7-15.7l16.4,1.5c-0.2,2.4-0.4,4.4-0.5,6.1c-0.1,1.7-0.2,3.3-0.2,4.7V113.6z"/>
</g>
</svg>
