<?xml version="1.0" encoding="utf-8"?>
<!-- Generator: Adobe Illustrator 20.1.0, SVG Export Plug-In . SVG Version: 6.00 Build 0)  -->
<svg version="1.1" id="Layer_1" xmlns="http://www.w3.org/2000/svg" xmlns:xlink="http://www.w3.org/1999/xlink" x="0px" y="0px"
	 viewBox="0 0 173.7 173.7" style="enable-background:new 0 0 173.7 173.7;" xml:space="preserve">
<style type="text/css">
	.st0{fill:#FFCC00;stroke:#454545;}
	.st1{fill:url(#SVGID_1_);}
	.st2{fill:#564709;}
</style>
<circle class="st0" cx="86.9" cy="86.9" r="86.4"/>
<g>
	<linearGradient id="SVGID_1_" gradientUnits="userSpaceOnUse" x1="34.9829" y1="138.7441" x2="138.7441" y2="34.9829">
		<stop  offset="0" style="stop-color:#FFF42A"/>
		<stop  offset="0.1068" style="stop-color:#FFF42D"/>
		<stop  offset="0.1792" style="stop-color:#FFF536"/>
		<stop  offset="0.2415" style="stop-color:#FFF545"/>
		<stop  offset="0.298" style="stop-color:#FFF75B"/>
		<stop  offset="0.3507" style="stop-color:#FFF876"/>
		<stop  offset="0.4005" style="stop-color:#FFFA99"/>
		<stop  offset="0.448" style="stop-color:#FFFCC1"/>
		<stop  offset="0.4926" style="stop-color:#FFFEEF"/>
		<stop  offset="0.5062" style="stop-color:#FFFFFF"/>
		<stop  offset="0.5261" style="stop-color:#FFFEE6"/>
		<stop  offset="0.5656" style="stop-color:#FFFBBA"/>
		<stop  offset="0.6082" style="stop-color:#FFF993"/>
		<stop  offset="0.6532" style="stop-color:#FFF873"/>
		<stop  offset="0.7014" style="stop-color:#FFF658"/>
		<stop  offset="0.754" style="stop-color:#FFF544"/>
		<stop  offset="0.8132" style="stop-color:#FFF535"/>
		<stop  offset="0.8844" style="stop-color:#FFF42D"/>
		<stop  offset="1" style="stop-color:#FFF42A"/>
	</linearGradient>
	<path class="st1" d="M86.9,160.3c-40.5,0-73.4-32.9-73.4-73.4s32.9-73.4,73.4-73.4s73.4,32.9,73.4,73.4S127.3,160.3,86.9,160.3z"/>
	<path class="st2" d="M86.9,14c40.2,0,72.9,32.7,72.9,72.9s-32.7,72.9-72.9,72.9S14,127.1,14,86.9S46.7,14,86.9,14 M86.9,13
		C46,13,13,46,13,86.9s33.1,73.9,73.9,73.9c40.8,0,73.9-33.1,73.9-73.9S127.7,13,86.9,13L86.9,13z"/>
</g>
<g>
	<path class="st0" d="M132.4,64.7c1.4,0.1,2.7,0.3,4,0.6c1.3,0.3,2.4,0.8,3.4,1.4c1,0.6,1.8,1.3,2.4,2.2c0.6,0.9,0.9,1.8,0.9,2.9
		c0,1.1-0.3,2-0.9,2.7c-0.6,0.7-1.6,1.1-2.9,1.1c-1.2,0-2.2-0.3-2.8-0.9c-0.6-0.6-0.9-1.4-0.9-2.4c0-0.6,0.2-1.3,0.7-1.8
		c0.5-0.6,1.1-0.9,2.1-1.1c-0.5-0.5-1.3-0.8-2.2-1.1c-0.9-0.3-2.1-0.5-3.6-0.5v18c1.7,0,3.1-0.5,4.4-1.3c1.3-0.8,2-2.1,2.3-3.8
		l4.1,0.3c-0.2,1-0.5,2-1,3c-0.5,1-1.2,1.9-2.1,2.7c-0.9,0.8-1.9,1.5-3.2,2c-1.3,0.5-2.8,0.9-4.5,1v5.4h-2.5v-5.4
		c-1.9-0.1-3.6-0.4-5.2-0.9c-1.6-0.5-2.9-1.3-4-2.3c-1.1-1-2-2.3-2.6-3.8c-0.6-1.5-0.9-3.3-0.9-5.4c0-1.8,0.3-3.4,0.8-5
		c0.5-1.5,1.3-2.9,2.3-4c1.1-1.1,2.4-2,4-2.7c1.6-0.7,3.5-1,5.7-1.1V59h2.5V64.7z M129.9,68.3c-1.4,0.5-2.6,1.4-3.4,2.8
		c-0.9,1.4-1.3,3.2-1.3,5.4c0,2.6,0.4,4.6,1.3,6c0.9,1.4,2,2.3,3.4,2.8V68.3z"/>
</g>
<g>
	<path class="st0" d="M73,101.1c0.1,0.7,0.1,1.6,0.2,2.6c0,1,0,1.8,0,2.4c0,1.5-0.1,2.9-0.4,4.2c-0.3,1.3-0.8,2.5-1.4,3.5
		c-0.6,1-1.5,1.8-2.5,2.4c-1,0.6-2.2,0.9-3.6,0.9c-2.2,0-4-0.3-5.4-0.8c-1.4-0.5-2.6-1.1-3.7-1.7c-1.1-0.6-2.2-1.2-3.3-1.7
		c-1.1-0.5-2.5-0.8-4.2-0.8c-1.4,0-2.6,0.3-3.5,1c-0.9,0.7-1.7,1.7-2.2,3.1h-4.4c0.6-4.7,1.6-8.5,2.8-11.5c1.3-3,2.7-5.5,4.3-7.5
		c1.6-2,3.2-3.7,4.8-5.1c1.6-1.4,3.1-2.8,4.5-4.2c1.4-1.4,2.5-3.1,3.3-4.9c0.9-1.8,1.3-4.2,1.3-7.2c0-3-0.6-5.3-1.9-6.8
		c-1.2-1.6-2.9-2.4-5-2.4c-2,0-3.6,0.4-4.6,1.2c-1,0.8-1.7,1.8-2.2,3.1c0.9,0.1,1.6,0.6,2.4,1.7c0.7,1.1,1.1,2.4,1.1,4
		c0,1.9-0.4,3.5-1.3,4.8c-0.9,1.3-2.1,1.9-3.7,1.9c-1.5,0-2.7-0.7-3.6-2c-0.8-1.3-1.2-3.1-1.2-5.2c0-1.7,0.3-3.5,0.9-5.4
		c0.6-1.9,1.5-3.6,2.8-5.2c1.3-1.6,2.9-2.9,4.9-3.9c2-1,4.4-1.6,7.1-1.6c2.1,0,4.1,0.3,6.1,0.8c2,0.6,3.8,1.5,5.3,2.8
		c1.5,1.3,2.8,3.1,3.7,5.3c1,2.2,1.4,5,1.4,8.3c0,3.8-0.6,6.9-1.8,9.3c-1.2,2.4-2.7,4.3-4.5,5.9c-1.8,1.5-3.8,2.7-5.9,3.7
		c-2.1,0.9-4.2,1.9-6.1,2.8c-1.9,0.9-3.6,2-5.1,3.2c-1.4,1.2-2.4,2.8-2.8,4.8c1.2-1.4,2.4-2.4,3.7-3.1c1.3-0.6,2.8-0.9,4.4-0.9
		c1.4,0,2.6,0.2,3.6,0.5c1,0.3,1.9,0.7,2.8,1.1c0.9,0.4,1.7,0.7,2.5,1.1c0.8,0.3,1.7,0.5,2.7,0.5c1.1,0,2.1-0.3,2.8-0.9
		c0.8-0.6,1.2-1.9,1.4-3.8H73z"/>
	<path class="st0" d="M112.2,62.8c-0.7,1.5-1.7,2.8-2.8,3.9c-1.1,1.1-2.3,2.1-3.7,2.8c-1.3,0.8-2.7,1.3-4.1,1.7
		c-1.4,0.4-2.8,0.6-4.1,0.6c-1.1,0-2.4-0.1-4-0.4c-1.6-0.3-3.1-0.9-4.7-1.7L88.2,81c1.3-1.1,2.8-1.9,4.5-2.4
		c1.7-0.5,3.6-0.8,5.7-0.8c3,0,5.6,0.5,7.7,1.5c2.1,1,3.7,2.3,5,4c1.2,1.7,2.1,3.7,2.7,6c0.5,2.3,0.8,4.7,0.8,7.2
		c0,3.8-0.5,7-1.6,9.7c-1,2.7-2.4,4.8-4.2,6.5c-1.7,1.6-3.8,2.9-6.1,3.6s-4.7,1.2-7.3,1.2c-2.1,0-4.1-0.4-6-1.2
		c-1.9-0.8-3.6-1.9-5.1-3.3c-1.5-1.4-2.6-3.1-3.5-5c-0.9-2-1.3-4.1-1.3-6.4c0-2.1,0.4-3.8,1.2-5.2c0.8-1.3,2-2,3.6-2
		c1.5,0,2.8,0.6,3.7,1.9c0.9,1.3,1.3,2.9,1.3,4.7c0,1.5-0.3,2.8-1,3.9c-0.7,1.1-1.4,1.6-2.2,1.7c0.4,1.3,1.2,2.3,2.4,3
		c1.2,0.7,2.8,1.1,4.7,1.1c3.2,0,5.4-1.3,6.8-3.8c1.4-2.6,2.1-6.3,2.1-11.1c0-3.8-0.6-6.7-1.7-8.8c-1.1-2.1-3-3.1-5.5-3.1
		c-1.9,0-3.6,0.3-5.1,0.9c-1.5,0.6-2.9,1.6-4.3,2.8l-3.4-3.5l1.6-24.3c1.1,0.2,2.2,0.4,3.5,0.6c1.3,0.2,2.6,0.3,4,0.4
		c1.4,0.1,2.7,0.2,4.1,0.2c1.3,0.1,2.6,0.1,3.7,0.1c1,0,2,0,3.2-0.1s2.3-0.2,3.5-0.3c1.2-0.1,2.3-0.3,3.4-0.6c1.1-0.2,2.1-0.5,3-0.9
		V62.8z"/>
</g>
</svg>
