<?xml version="1.0" encoding="utf-8"?>
<!-- Generator: Adobe Illustrator 20.1.0, SVG Export Plug-In . SVG Version: 6.00 Build 0)  -->
<svg version="1.1" id="Layer_1" xmlns="http://www.w3.org/2000/svg" xmlns:xlink="http://www.w3.org/1999/xlink" x="0px" y="0px"
	 viewBox="0 0 173.7 173.7" style="enable-background:new 0 0 173.7 173.7;" xml:space="preserve">
<style type="text/css">
	.st0{fill:#FFCC00;stroke:#454545;}
	.st1{fill:url(#SVGID_1_);}
	.st2{fill:#564709;}
</style>
<circle class="st0" cx="86.7" cy="87.1" r="86.4"/>
<g>
	<linearGradient id="SVGID_1_" gradientUnits="userSpaceOnUse" x1="34.8134" y1="139.022" x2="138.5747" y2="35.2607">
		<stop  offset="0" style="stop-color:#FFF42A"/>
		<stop  offset="0.1068" style="stop-color:#FFF42D"/>
		<stop  offset="0.1792" style="stop-color:#FFF536"/>
		<stop  offset="0.2415" style="stop-color:#FFF545"/>
		<stop  offset="0.298" style="stop-color:#FFF75B"/>
		<stop  offset="0.3507" style="stop-color:#FFF876"/>
		<stop  offset="0.4005" style="stop-color:#FFFA99"/>
		<stop  offset="0.448" style="stop-color:#FFFCC1"/>
		<stop  offset="0.4926" style="stop-color:#FFFEEF"/>
		<stop  offset="0.5062" style="stop-color:#FFFFFF"/>
		<stop  offset="0.5261" style="stop-color:#FFFEE6"/>
		<stop  offset="0.5656" style="stop-color:#FFFBBA"/>
		<stop  offset="0.6082" style="stop-color:#FFF993"/>
		<stop  offset="0.6532" style="stop-color:#FFF873"/>
		<stop  offset="0.7014" style="stop-color:#FFF658"/>
		<stop  offset="0.754" style="stop-color:#FFF544"/>
		<stop  offset="0.8132" style="stop-color:#FFF535"/>
		<stop  offset="0.8844" style="stop-color:#FFF42D"/>
		<stop  offset="1" style="stop-color:#FFF42A"/>
	</linearGradient>
	<path class="st1" d="M86.7,160.5c-40.5,0-73.4-32.9-73.4-73.4c0-40.5,32.9-73.4,73.4-73.4c40.5,0,73.4,32.9,73.4,73.4
		C160.1,127.6,127.2,160.5,86.7,160.5z"/>
	<g>
		<path class="st2" d="M86.7,14.2c40.2,0,72.9,32.7,72.9,72.9c0,40.2-32.7,72.9-72.9,72.9s-72.9-32.7-72.9-72.9
			C13.8,46.9,46.5,14.2,86.7,14.2 M86.7,13.2c-40.8,0-73.9,33.1-73.9,73.9c0,40.8,33.1,73.9,73.9,73.9s73.9-33.1,73.9-73.9
			C160.6,46.3,127.5,13.2,86.7,13.2L86.7,13.2z"/>
	</g>
</g>
<g>
	<path class="st0" d="M132.2,53.9c1.4,0.1,2.7,0.3,4,0.6c1.3,0.3,2.4,0.8,3.4,1.4c1,0.6,1.8,1.3,2.4,2.2c0.6,0.9,0.9,1.8,0.9,2.9
		c0,1.1-0.3,2-0.9,2.7c-0.6,0.7-1.6,1.1-2.9,1.1c-1.2,0-2.2-0.3-2.8-0.9c-0.6-0.6-0.9-1.4-0.9-2.4c0-0.6,0.2-1.3,0.7-1.8
		c0.5-0.6,1.1-0.9,2.1-1.1c-0.5-0.5-1.3-0.8-2.2-1.1c-0.9-0.3-2.1-0.5-3.6-0.5v18c1.7,0,3.1-0.5,4.4-1.3c1.3-0.8,2-2.1,2.3-3.8
		l4.1,0.3c-0.2,1-0.5,2-1,3c-0.5,1-1.2,1.9-2.1,2.7c-0.9,0.8-1.9,1.5-3.2,2c-1.3,0.5-2.8,0.9-4.5,1v5.4h-2.5V79
		c-1.9-0.1-3.6-0.4-5.2-0.9c-1.6-0.5-2.9-1.3-4-2.3c-1.1-1-2-2.3-2.6-3.8c-0.6-1.5-0.9-3.3-0.9-5.4c0-1.8,0.3-3.4,0.8-5
		c0.5-1.5,1.3-2.9,2.3-4c1.1-1.1,2.4-2,4-2.7c1.6-0.7,3.5-1,5.7-1.1v-5.6h2.5V53.9z M129.7,57.5c-1.4,0.5-2.6,1.4-3.4,2.8
		c-0.9,1.4-1.3,3.2-1.3,5.4c0,2.6,0.4,4.6,1.3,6c0.9,1.4,2,2.3,3.4,2.8V57.5z"/>
</g>
<g>
	<path class="st0" d="M106.2,54.2c-1.4,2.1-3.1,4-5.1,5.7c-2.1,1.6-4.3,3-6.8,4.1c-2.4,1.1-5,1.9-7.6,2.5c-2.6,0.6-5.2,0.8-7.6,0.8
		c-2,0-4.5-0.2-7.4-0.6c-2.9-0.4-5.8-1.2-8.6-2.5l-1.5,16.2c2.4-1.6,5.2-2.8,8.4-3.5c3.2-0.8,6.7-1.1,10.6-1.1
		c5.7,0,10.4,0.7,14.2,2.1c3.8,1.4,6.9,3.4,9.2,5.8c2.3,2.5,4,5.3,5,8.6c1,3.3,1.5,6.8,1.5,10.4c0,5.5-1,10.1-2.9,14
		c-1.9,3.9-4.5,7-7.7,9.4c-3.2,2.4-7,4.1-11.3,5.2s-8.8,1.7-13.6,1.7c-3.8,0-7.6-0.6-11.1-1.7c-3.6-1.1-6.7-2.7-9.4-4.7
		c-2.7-2-4.9-4.4-6.5-7.3c-1.6-2.8-2.4-5.9-2.4-9.2c0-3,0.8-5.5,2.3-7.4c1.5-1.9,3.7-2.9,6.6-2.9c2.9,0,5.1,0.9,6.8,2.8
		c1.7,1.9,2.5,4.2,2.5,6.9c0,2.2-0.6,4.1-1.9,5.7c-1.2,1.5-2.6,2.4-4.1,2.4c0.7,1.8,2.1,3.3,4.4,4.3c2.3,1.1,5.2,1.6,8.8,1.6
		c5.9,0,10.1-1.8,12.7-5.5c2.6-3.7,3.8-9,3.8-16c0-5.5-1.1-9.7-3.2-12.7c-2.1-3-5.5-4.5-10.3-4.5c-3.5,0-6.6,0.5-9.4,1.4
		c-2.8,0.9-5.5,2.2-8,4l-6.3-5.1l3.1-35.1c2,0.3,4.1,0.6,6.6,0.8c2.4,0.2,4.9,0.4,7.5,0.6c2.6,0.2,5.1,0.3,7.6,0.4
		c2.5,0.1,4.8,0.1,6.9,0.1c1.8,0,3.8-0.1,5.9-0.2s4.3-0.3,6.5-0.5c2.2-0.2,4.3-0.5,6.4-0.8c2.1-0.4,3.9-0.8,5.6-1.3V54.2z"/>
</g>
</svg>
