<?xml version="1.0" encoding="utf-8"?>
<!-- Generator: Adobe Illustrator 20.1.0, SVG Export Plug-In . SVG Version: 6.00 Build 0)  -->
<svg version="1.1" xmlns="http://www.w3.org/2000/svg" xmlns:xlink="http://www.w3.org/1999/xlink" x="0px" y="0px"
	 viewBox="0 0 352.2 282.2" style="enable-background:new 0 0 352.2 282.2;" xml:space="preserve">
<style type="text/css">
	.st0{fill:none;stroke:#000000;stroke-width:3;stroke-linecap:round;stroke-miterlimit:10;}
	.st1{fill:#FBCCCC;stroke:#000000;stroke-width:2;stroke-miterlimit:10;}
	.st2{fill:none;stroke:#000000;stroke-width:2;stroke-miterlimit:10;}
	.st3{fill:none;stroke:#000000;stroke-miterlimit:10;}
	.st4{fill:#F3A8A8;stroke:#000000;stroke-width:2;stroke-miterlimit:10;}
	.st5{fill:none;stroke:#000000;stroke-width:2;stroke-linecap:round;stroke-miterlimit:10;}
	.st6{fill:#FBCCCC;stroke:#000000;stroke-width:2;stroke-linecap:round;stroke-miterlimit:10;}
	.st7{fill:none;stroke:#000000;stroke-width:5;stroke-linecap:round;stroke-linejoin:round;stroke-miterlimit:10;}
	.st8{fill:url(#SVGID_1_);}
</style>
<g id="shape">
	<path class="st0" d="M312,112.5c0,0,25.9-5.4,26.1-22.8c0.1-11.3-18.9-6.2-19.3,1.8c-0.4,8,16.9,24,28.6,10.3
		c6.4-7.5,1.5-17.4,1.5-17.4"/>
	<path class="st1" d="M65.8,220.2c0,0,0,39.9,3.5,39.6c23.3-2.2,25.1-22.8,25.1-22.8l1.7,0.5c5,2.4,5.2,2.2,10.6,4.2l-7.1,36.8
		c0,0,17,6,29.5,0c6.7-3.2,15.2-15.8,21.6-26.7c7.1,0.8,14.3,1.2,21.6,1.2c16.1,0,31.7-1.9,46.2-5.4l0,0l-6.4,16.9c0,0,21,5.5,27,0
		c5.6-5.1,13.8-26.7,14.9-29.7c1.2-0.6,2.3-1.1,3.4-1.7l-3.3,33.9c0,0,15,6.5,22,2.5s25-44,29.5-62s9.8-37.9,9.8-37.9l0,0
		c2.4-7.7,3.7-15.8,3.7-24.1C319.1,86.1,253.4,38,172.3,38c-8.3,0-16.5,0.5-24.4,1.5c-0.9-6.9-3.4-15.5-9.8-22.5
		C119.7-3,95.7,2,95.7,2s-4.1,16.9-4.3,29.3c-2.1-2.9-4.6-5.6-7.6-8.1C64.1,7,39,18.3,39,18.3S38.9,36.8,41.8,49
		c3,12.9,10.4,22.1,13.4,25.5C38.7,81.7,19.5,89,19.5,89C9.3,89,1.1,111.3,1.1,138.9c0,27.5,8.2,49.9,18.4,49.9c0.3,0,0.6,0,0.9-0.1
		c1.4,0.1,5,0.8,12.7,4.3c6.2,2.9,13.3,9.1,19.9,15.1c3.4,3.5,7.2,6.9,11.2,10.1L65.8,220.2z"/>
</g>
<g id="strokes">
	<path class="st2" d="M172.2,37.6c-39.7,0-75.6,11.5-102,30.2l0,0c-15.3,9.5-50.8,20.8-50.8,20.8v99.7c0,0,2.3-1,13.6,4.3
		c6.2,2.9,13.3,9.1,19.9,15.1c3.4,3.5,7.2,6.9,11.2,10.1c1.1,0.9,2,1.6,2.9,2.3l0,0c26.7,20.1,64,32.6,105.3,32.6
		c81.1,0,146.8-48.1,146.8-107.5S253.3,37.6,172.2,37.6z"/>
	<path class="st3" d="M55.1,74.5c0,0-9.7-10-13.4-26c-2.9-12.2-2.8-30.6-2.8-30.6S64,6.6,83.6,22.8c14.8,12.2,17.8,31.8,17.8,31.8"
		/>
	<ellipse class="st1" cx="19.4" cy="138.4" rx="18.4" ry="49.9"/>
	<ellipse class="st4" cx="24.8" cy="137.8" rx="4.2" ry="13.8"/>
	<ellipse class="st4" cx="8.7" cy="134" rx="4.2" ry="13.8"/>
	<circle cx="85.6" cy="89.2" r="5.6"/>
	<path class="st5" d="M33,192.6c0,0,8-0.1,10.7-4.3c2.7-4.2,0-12.7,0-12.7"/>
	<path class="st6" d="M108,234.1l-8.5,44c0,0,17,6,29.5,0s31-44,31-44"/>
	<path class="st6" d="M258,225.6l-4,41c0,0,15,6.5,22,2.5s25-44,29.5-62s9.8-37.9,9.8-37.9"/>
	<path class="st3" d="M218.4,247.1l-6.4,16.9c0,0,21,5.5,27,0s15-30,15-30"/>
	<path class="st6" d="M99.5,62.6c0,0-8.2-14.2-8.2-30.5c0-12.5,4.3-30.5,4.3-30.5s24-5,42.4,15c13,14.2,10,35,10,35"/>
	<path class="st3" d="M65.7,219.7c0,0,0,39.9,3.5,39.6c23.3-2.2,25.1-22.8,25.1-22.8"/>
	<path class="st7" d="M225.4,52.3c0,0-17.2-4.9-34.3-5.8c-14-0.8-31.1,1.2-31.1,1.2"/>
	
		<radialGradient id="SVGID_1_" cx="184.7148" cy="154.1389" r="70.6183" gradientTransform="matrix(1.2313 0 0 0.9248 -34.2079 13.1159)" gradientUnits="userSpaceOnUse">
		<stop  offset="0" style="stop-color:#FDF7F1"/>
		<stop  offset="0.5164" style="stop-color:#FCE2DF"/>
		<stop  offset="1" style="stop-color:#FBCCCC"/>
	</radialGradient>
	<ellipse class="st8" cx="193.2" cy="155.7" rx="98.9" ry="78.4"/>
</g>
</svg>
